<?xml version="1.0" encoding="UTF-8"?>
<!DOCTYPE svg PUBLIC "-//W3C//DTD SVG 1.1//EN" "http://www.w3.org/Graphics/SVG/1.1/DTD/svg11.dtd">
<svg xmlns="http://www.w3.org/2000/svg" version="1.1" width="601px" height="401px" style="shape-rendering:geometricPrecision; text-rendering:geometricPrecision; image-rendering:optimizeQuality; fill-rule:evenodd; clip-rule:evenodd" xmlns:xlink="http://www.w3.org/1999/xlink">
<g><path style="opacity:0.995" fill="#e3eff8" d="M -0.5,-0.5 C 50.1667,-0.5 100.833,-0.5 151.5,-0.5C 101.34,98.4874 50.6736,197.154 -0.5,295.5C -0.5,196.833 -0.5,98.1667 -0.5,-0.5 Z"/></g>
<g><path style="opacity:0.998" fill="#e0edf7" d="M 151.5,-0.5 C 159.167,-0.5 166.833,-0.5 174.5,-0.5C 116.405,113.358 58.0719,227.024 -0.5,340.5C -0.5,325.5 -0.5,310.5 -0.5,295.5C 50.6736,197.154 101.34,98.4874 151.5,-0.5 Z"/></g>
<g><path style="opacity:0.998" fill="#ddeaf7" d="M 174.5,-0.5 C 227.5,-0.5 280.5,-0.5 333.5,-0.5C 315.422,35.9888 297.089,72.3222 278.5,108.5C 267.778,116.268 260.778,126.601 257.5,139.5C 256.402,144.092 255.735,148.759 255.5,153.5C 237.928,186.976 220.595,220.642 203.5,254.5C 196.174,254.493 192.507,258.16 192.5,265.5C 192.637,267.883 192.971,270.217 193.5,272.5C 171.846,315.14 150.18,357.807 128.5,400.5C 85.5,400.5 42.5,400.5 -0.5,400.5C -0.5,380.5 -0.5,360.5 -0.5,340.5C 58.0719,227.024 116.405,113.358 174.5,-0.5 Z"/></g>
<g><path style="opacity:0.993" fill="#d9e8f6" d="M 333.5,-0.5 C 348.833,-0.5 364.167,-0.5 379.5,-0.5C 358.833,39.8333 338.167,80.1667 317.5,120.5C 313.775,114.292 308.275,110.625 301,109.5C 297.922,110.134 295.089,111.134 292.5,112.5C 292.167,112.5 291.833,112.5 291.5,112.5C 289.704,111.207 288.037,109.707 286.5,108C 283.779,107.398 281.113,107.565 278.5,108.5C 297.089,72.3222 315.422,35.9888 333.5,-0.5 Z"/></g>
<g><path style="opacity:0.998" fill="#d6e5f6" d="M 379.5,-0.5 C 417.5,-0.5 455.5,-0.5 493.5,-0.5C 450.898,82.3705 408.565,165.371 366.5,248.5C 362.5,248.5 358.5,248.5 354.5,248.5C 354.5,256.167 354.5,263.833 354.5,271.5C 331.738,314.023 309.738,357.023 288.5,400.5C 250.5,400.5 212.5,400.5 174.5,400.5C 195.244,358.678 216.244,317.011 237.5,275.5C 249.489,277.343 254.656,272.343 253,260.5C 251.64,257.977 249.807,255.977 247.5,254.5C 248.376,254.631 249.043,254.298 249.5,253.5C 255.924,240.317 262.591,227.317 269.5,214.5C 271.167,214.5 272.833,214.5 274.5,214.5C 278.833,214.5 283.167,214.5 287.5,214.5C 292.167,214.5 296.833,214.5 301.5,214.5C 305.833,214.5 310.167,214.5 314.5,214.5C 322.585,214.901 330.585,214.401 338.5,213C 339.667,211.5 340.833,210 342,208.5C 342.829,186.996 342.663,165.663 341.5,144.5C 340.783,137.044 337.116,131.711 330.5,128.5C 327.132,125.147 323.132,122.814 318.5,121.5C 318.5,120.833 318.167,120.5 317.5,120.5C 338.167,80.1667 358.833,39.8333 379.5,-0.5 Z"/></g>
<g><path style="opacity:0.998" fill="#d1e2f5" d="M 493.5,-0.5 C 529.167,-0.5 564.833,-0.5 600.5,-0.5C 600.5,18.8333 600.5,38.1667 600.5,57.5C 541.595,171.642 482.928,285.976 424.5,400.5C 379.167,400.5 333.833,400.5 288.5,400.5C 309.738,357.023 331.738,314.023 354.5,271.5C 354.5,272.833 354.5,274.167 354.5,275.5C 360.167,275.5 365.833,275.5 371.5,275.5C 371.5,273.833 371.5,272.167 371.5,270.5C 367.833,270.5 364.167,270.5 360.5,270.5C 360.5,268.5 360.5,266.5 360.5,264.5C 363.5,264.5 366.5,264.5 369.5,264.5C 369.5,262.833 369.5,261.167 369.5,259.5C 366.5,259.5 363.5,259.5 360.5,259.5C 360.5,257.5 360.5,255.5 360.5,253.5C 363.833,253.5 367.167,253.5 370.5,253.5C 370.5,251.833 370.5,250.167 370.5,248.5C 369.167,248.5 367.833,248.5 366.5,248.5C 408.565,165.371 450.898,82.3705 493.5,-0.5 Z"/></g>
<g><path style="opacity:1" fill="#ccdff4" d="M 600.5,57.5 C 600.5,171.833 600.5,286.167 600.5,400.5C 541.833,400.5 483.167,400.5 424.5,400.5C 482.928,285.976 541.595,171.642 600.5,57.5 Z"/></g>
<g><path style="opacity:1" fill="#2eb0e0" d="M 317.5,120.5 C 318.167,120.5 318.5,120.833 318.5,121.5C 319.374,124.789 320.041,128.123 320.5,131.5C 319.154,133.127 317.654,133.794 316,133.5C 315.085,132.672 314.419,131.672 314,130.5C 312.289,131.581 310.789,131.248 309.5,129.5C 309.579,128.07 309.246,126.736 308.5,125.5C 304.284,119.734 298.951,115.401 292.5,112.5C 295.089,111.134 297.922,110.134 301,109.5C 308.275,110.625 313.775,114.292 317.5,120.5 Z"/></g>
<g><path style="opacity:1" fill="#99d5eb" d="M 291.5,112.5 C 291.5,112.833 291.5,113.167 291.5,113.5C 290.928,114.973 290.095,116.307 289,117.5C 288.667,117.167 288.333,116.833 288,116.5C 283.005,121.848 277.505,126.681 271.5,131C 266.667,133.689 262,136.522 257.5,139.5C 260.778,126.601 267.778,116.268 278.5,108.5C 281.113,107.565 283.779,107.398 286.5,108C 288.037,109.707 289.704,111.207 291.5,112.5 Z"/></g>
<g><path style="opacity:1" fill="#86cfe9" d="M 291.5,113.5 C 292.537,114.93 293.204,116.597 293.5,118.5C 293.896,121.044 293.229,123.211 291.5,125C 280.308,133.692 268.975,142.192 257.5,150.5C 256.502,159.81 256.168,169.143 256.5,178.5C 255.507,170.35 255.174,162.017 255.5,153.5C 255.735,148.759 256.402,144.092 257.5,139.5C 262,136.522 266.667,133.689 271.5,131C 277.505,126.681 283.005,121.848 288,116.5C 288.333,116.833 288.667,117.167 289,117.5C 290.095,116.307 290.928,114.973 291.5,113.5 Z"/></g>
<g><path style="opacity:1" fill="#279ccc" d="M 291.5,113.5 C 291.5,113.167 291.5,112.833 291.5,112.5C 291.833,112.5 292.167,112.5 292.5,112.5C 298.951,115.401 304.284,119.734 308.5,125.5C 309.246,126.736 309.579,128.07 309.5,129.5C 307.772,131.837 307.106,134.17 307.5,136.5C 306.778,136.082 306.278,135.416 306,134.5C 305.405,135.899 305.572,137.232 306.5,138.5C 305.117,141.076 304.283,140.742 304,137.5C 303.658,139.619 302.825,139.953 301.5,138.5C 300.717,136.657 300.05,134.657 299.5,132.5C 298.066,131.77 296.9,130.77 296,129.5C 295.802,131.382 295.302,133.048 294.5,134.5C 294.821,128.974 294.488,123.64 293.5,118.5C 293.204,116.597 292.537,114.93 291.5,113.5 Z"/></g>
<g><path style="opacity:1" fill="#65c6e7" d="M 293.5,118.5 C 294.488,123.64 294.821,128.974 294.5,134.5C 294.666,141.508 294.5,148.508 294,155.5C 291.649,162.519 287.149,167.686 280.5,171C 274.361,174.651 268.027,177.818 261.5,180.5C 259.302,180.88 257.635,180.213 256.5,178.5C 256.168,169.143 256.502,159.81 257.5,150.5C 268.975,142.192 280.308,133.692 291.5,125C 293.229,123.211 293.896,121.044 293.5,118.5 Z"/></g>
<g><path style="opacity:1" fill="#25a1db" d="M 309.5,129.5 C 310.789,131.248 312.289,131.581 314,130.5C 314.419,131.672 315.085,132.672 316,133.5C 317.654,133.794 319.154,133.127 320.5,131.5C 321.494,141.987 321.828,152.654 321.5,163.5C 319.404,160.093 316.904,157.76 314,156.5C 311.641,149.835 309.474,143.168 307.5,136.5C 307.106,134.17 307.772,131.837 309.5,129.5 Z"/></g>
<g><path style="opacity:1" fill="#d9e8f6" d="M 255.5,153.5 C 255.174,162.017 255.507,170.35 256.5,178.5C 257.635,180.213 259.302,180.88 261.5,180.5C 261.5,181.167 261.5,181.833 261.5,182.5C 261.334,191.506 261.5,200.506 262,209.5C 263.41,212.789 265.91,214.456 269.5,214.5C 262.591,227.317 255.924,240.317 249.5,253.5C 249.043,254.298 248.376,254.631 247.5,254.5C 235.456,253.375 230.623,258.708 233,270.5C 234.059,272.659 235.559,274.326 237.5,275.5C 216.244,317.011 195.244,358.678 174.5,400.5C 159.167,400.5 143.833,400.5 128.5,400.5C 150.18,357.807 171.846,315.14 193.5,272.5C 197.955,275.564 202.788,276.23 208,274.5C 208.151,270.665 206.485,269.665 203,271.5C 201.289,271.561 199.956,270.894 199,269.5C 196.751,261.915 199.584,258.248 207.5,258.5C 208.742,255.07 207.409,253.737 203.5,254.5C 220.595,220.642 237.928,186.976 255.5,153.5 Z"/></g>
<g><path style="opacity:1" fill="#1e5aa0" d="M 330.5,128.5 C 337.116,131.711 340.783,137.044 341.5,144.5C 341.5,144.833 341.5,145.167 341.5,145.5C 338.322,154.888 335.822,164.554 334,174.5C 328.26,189.858 318.427,201.692 304.5,210C 302.859,211.129 301.859,212.629 301.5,214.5C 296.833,214.5 292.167,214.5 287.5,214.5C 287.389,213.883 287.056,213.383 286.5,213C 299.496,205.594 311.663,197.094 323,187.5C 324.799,183.117 326.799,178.783 329,174.5C 330.331,169.61 331.331,164.943 332,160.5C 332.5,159.333 333.333,158.5 334.5,158C 334.875,150.687 334.208,143.354 332.5,136C 332.645,135.228 332.978,134.561 333.5,134C 331.658,132.654 330.658,130.821 330.5,128.5 Z"/></g>
<g><path style="opacity:1" fill="#1763ac" d="M 341.5,145.5 C 341.666,155.839 341.5,166.172 341,176.5C 339.501,176.935 338.001,178.101 336.5,180C 336.097,181.473 335.43,182.806 334.5,184C 334.833,184.333 335.167,184.667 335.5,185C 334.324,186.674 332.99,188.174 331.5,189.5C 331.709,190.086 332.043,190.586 332.5,191C 330.999,192.252 329.332,193.252 327.5,194C 328.167,194.333 328.833,194.667 329.5,195C 325.956,198.383 322.289,201.549 318.5,204.5C 317.749,205.376 317.249,206.376 317,207.5C 316.333,206.167 315.667,206.167 315,207.5C 312.641,210.009 312.475,212.343 314.5,214.5C 310.167,214.5 305.833,214.5 301.5,214.5C 301.859,212.629 302.859,211.129 304.5,210C 318.427,201.692 328.26,189.858 334,174.5C 335.822,164.554 338.322,154.888 341.5,145.5 Z"/></g>
<g><path style="opacity:1" fill="#1b81b8" d="M 301.5,138.5 C 302.372,142.573 303.038,146.406 303.5,150C 301.619,153.313 300.286,156.813 299.5,160.5C 295.252,169.275 288.585,174.775 279.5,177C 275.56,178.015 271.56,178.515 267.5,178.5C 267.5,179.5 267.5,180.5 267.5,181.5C 265.435,181.517 263.435,181.85 261.5,182.5C 261.5,181.833 261.5,181.167 261.5,180.5C 268.027,177.818 274.361,174.651 280.5,171C 287.149,167.686 291.649,162.519 294,155.5C 294.5,148.508 294.666,141.508 294.5,134.5C 295.302,133.048 295.802,131.382 296,129.5C 296.9,130.77 298.066,131.77 299.5,132.5C 300.05,134.657 300.717,136.657 301.5,138.5 Z"/></g>
<g><path style="opacity:1" fill="#2694d1" d="M 307.5,136.5 C 309.474,143.168 311.641,149.835 314,156.5C 316.904,157.76 319.404,160.093 321.5,163.5C 321.5,168.833 321.5,174.167 321.5,179.5C 320.849,178.909 320.182,178.243 319.5,177.5C 317.958,178.747 316.458,178.747 315,177.5C 312.731,179.619 310.231,180.286 307.5,179.5C 306.808,180.025 306.308,180.692 306,181.5C 304.211,181.377 302.378,181.377 300.5,181.5C 299.842,179.563 299.509,177.73 299.5,176C 299.996,174.004 300.996,172.337 302.5,171C 301.315,168.224 301.315,165.39 302.5,162.5C 302.35,159.971 301.35,159.305 299.5,160.5C 300.286,156.813 301.619,153.313 303.5,150C 303.038,146.406 302.372,142.573 301.5,138.5C 302.825,139.953 303.658,139.619 304,137.5C 304.283,140.742 305.117,141.076 306.5,138.5C 305.572,137.232 305.405,135.899 306,134.5C 306.278,135.416 306.778,136.082 307.5,136.5 Z"/></g>
<g><path style="opacity:1" fill="#1a5394" d="M 318.5,121.5 C 323.132,122.814 327.132,125.147 330.5,128.5C 330.658,130.821 331.658,132.654 333.5,134C 332.978,134.561 332.645,135.228 332.5,136C 334.208,143.354 334.875,150.687 334.5,158C 333.333,158.5 332.5,159.333 332,160.5C 331.331,164.943 330.331,169.61 329,174.5C 326.799,178.783 324.799,183.117 323,187.5C 311.663,197.094 299.496,205.594 286.5,213C 287.056,213.383 287.389,213.883 287.5,214.5C 283.167,214.5 278.833,214.5 274.5,214.5C 287.603,206.108 300.936,197.941 314.5,190C 318.205,187.426 320.538,183.926 321.5,179.5C 321.5,174.167 321.5,168.833 321.5,163.5C 321.828,152.654 321.494,141.987 320.5,131.5C 320.041,128.123 319.374,124.789 318.5,121.5 Z"/></g>
<g><path style="opacity:1" fill="#288dcd" d="M 321.5,179.5 C 320.538,183.926 318.205,187.426 314.5,190C 300.936,197.941 287.603,206.108 274.5,214.5C 272.833,214.5 271.167,214.5 269.5,214.5C 265.91,214.456 263.41,212.789 262,209.5C 261.5,200.506 261.334,191.506 261.5,182.5C 263.435,181.85 265.435,181.517 267.5,181.5C 267.5,180.5 267.5,179.5 267.5,178.5C 271.56,178.515 275.56,178.015 279.5,177C 288.585,174.775 295.252,169.275 299.5,160.5C 301.35,159.305 302.35,159.971 302.5,162.5C 301.315,165.39 301.315,168.224 302.5,171C 300.996,172.337 299.996,174.004 299.5,176C 299.509,177.73 299.842,179.563 300.5,181.5C 302.378,181.377 304.211,181.377 306,181.5C 306.308,180.692 306.808,180.025 307.5,179.5C 310.231,180.286 312.731,179.619 315,177.5C 316.458,178.747 317.958,178.747 319.5,177.5C 320.182,178.243 320.849,178.909 321.5,179.5 Z"/></g>
<g><path style="opacity:1" fill="#2071b8" d="M 341.5,144.5 C 342.663,165.663 342.829,186.996 342,208.5C 340.833,210 339.667,211.5 338.5,213C 330.585,214.401 322.585,214.901 314.5,214.5C 312.475,212.343 312.641,210.009 315,207.5C 315.667,206.167 316.333,206.167 317,207.5C 317.249,206.376 317.749,205.376 318.5,204.5C 322.289,201.549 325.956,198.383 329.5,195C 328.833,194.667 328.167,194.333 327.5,194C 329.332,193.252 330.999,192.252 332.5,191C 332.043,190.586 331.709,190.086 331.5,189.5C 332.99,188.174 334.324,186.674 335.5,185C 335.167,184.667 334.833,184.333 334.5,184C 335.43,182.806 336.097,181.473 336.5,180C 338.001,178.101 339.501,176.935 341,176.5C 341.5,166.172 341.666,155.839 341.5,145.5C 341.5,145.167 341.5,144.833 341.5,144.5 Z"/></g>
<g><path style="opacity:1" fill="#3e80c2" d="M 180.5,245.5 C 184.677,244.842 186.177,246.508 185,250.5C 182.214,253.264 180.048,252.764 178.5,249C 178.978,247.697 179.645,246.531 180.5,245.5 Z"/></g>
<g><path style="opacity:1" fill="#1d76bb" d="M 314.5,251.5 C 313.566,252.568 313.232,253.901 313.5,255.5C 314.833,255.5 316.167,255.5 317.5,255.5C 317.5,256.5 317.5,257.5 317.5,258.5C 315.901,258.232 314.568,258.566 313.5,259.5C 313.5,264.833 313.5,270.167 313.5,275.5C 311.833,275.5 310.167,275.5 308.5,275.5C 308.5,270.167 308.5,264.833 308.5,259.5C 307.167,259.5 305.833,259.5 304.5,259.5C 304.5,258.167 304.5,256.833 304.5,255.5C 305.833,255.5 307.167,255.5 308.5,255.5C 308.5,253.833 308.5,252.167 308.5,250.5C 308.944,248.887 309.944,247.72 311.5,247C 314.146,246.503 316.813,246.336 319.5,246.5C 319.649,247.552 319.483,248.552 319,249.5C 317.378,250.099 315.878,250.766 314.5,251.5 Z"/></g>
<g><path style="opacity:1" fill="#2e7bbe" d="M 139.5,248.5 C 142.833,248.5 146.167,248.5 149.5,248.5C 151.225,254.844 153.058,261.178 155,267.5C 157.46,261.288 159.627,254.954 161.5,248.5C 164.5,248.5 167.5,248.5 170.5,248.5C 170.5,257.5 170.5,266.5 170.5,275.5C 168.5,275.5 166.5,275.5 164.5,275.5C 164.666,269.491 164.499,263.491 164,257.5C 162.3,262.982 160.3,268.315 158,273.5C 156.33,275.698 154.33,276.032 152,274.5C 150.595,268.618 148.595,262.951 146,257.5C 145.501,263.491 145.334,269.491 145.5,275.5C 143.5,275.5 141.5,275.5 139.5,275.5C 139.5,266.5 139.5,257.5 139.5,248.5 Z"/></g>
<g><path style="opacity:1" fill="#2778bd" d="M 366.5,248.5 C 367.833,248.5 369.167,248.5 370.5,248.5C 370.5,250.167 370.5,251.833 370.5,253.5C 367.167,253.5 363.833,253.5 360.5,253.5C 360.5,255.5 360.5,257.5 360.5,259.5C 363.5,259.5 366.5,259.5 369.5,259.5C 369.5,261.167 369.5,262.833 369.5,264.5C 366.5,264.5 363.5,264.5 360.5,264.5C 360.5,266.5 360.5,268.5 360.5,270.5C 364.167,270.5 367.833,270.5 371.5,270.5C 371.5,272.167 371.5,273.833 371.5,275.5C 365.833,275.5 360.167,275.5 354.5,275.5C 354.5,274.167 354.5,272.833 354.5,271.5C 354.5,263.833 354.5,256.167 354.5,248.5C 358.5,248.5 362.5,248.5 366.5,248.5 Z"/></g>
<g><path style="opacity:1" fill="#2d7abe" d="M 330.5,254.5 C 331.568,255.434 332.901,255.768 334.5,255.5C 334.5,256.833 334.5,258.167 334.5,259.5C 333.167,259.5 331.833,259.5 330.5,259.5C 330.5,263.5 330.5,267.5 330.5,271.5C 333.95,270.756 335.616,272.09 335.5,275.5C 331.397,276.231 327.897,275.231 325,272.5C 324.501,268.179 324.334,263.846 324.5,259.5C 323.5,259.5 322.5,259.5 321.5,259.5C 321.5,257.833 321.5,256.167 321.5,254.5C 322.5,254.5 323.5,254.5 324.5,254.5C 323.953,250.71 325.62,248.71 329.5,248.5C 330.466,250.396 330.799,252.396 330.5,254.5 Z"/></g>
<g><path style="opacity:1" fill="#2b7abe" d="M 411.5,254.5 C 412.568,255.434 413.901,255.768 415.5,255.5C 415.5,256.833 415.5,258.167 415.5,259.5C 414.167,259.5 412.833,259.5 411.5,259.5C 411.5,263.5 411.5,267.5 411.5,271.5C 414.95,270.756 416.616,272.09 416.5,275.5C 412.397,276.231 408.897,275.231 406,272.5C 405.501,268.179 405.334,263.846 405.5,259.5C 404.5,259.5 403.5,259.5 402.5,259.5C 402.5,258.167 402.5,256.833 402.5,255.5C 403.5,255.5 404.5,255.5 405.5,255.5C 404.483,251.219 406.15,248.886 410.5,248.5C 411.466,250.396 411.799,252.396 411.5,254.5 Z"/></g>
<g><path style="opacity:1" fill="#307bbe" d="M 203.5,254.5 C 207.409,253.737 208.742,255.07 207.5,258.5C 199.584,258.248 196.751,261.915 199,269.5C 199.956,270.894 201.289,271.561 203,271.5C 206.485,269.665 208.151,270.665 208,274.5C 202.788,276.23 197.955,275.564 193.5,272.5C 192.971,270.217 192.637,267.883 192.5,265.5C 192.507,258.16 196.174,254.493 203.5,254.5 Z"/></g>
<g><path style="opacity:1" fill="#1e76bb" d="M 214.5,255.5 C 216.167,255.5 217.833,255.5 219.5,255.5C 219.345,258.853 220.012,259.186 221.5,256.5C 222.635,254.787 224.302,254.12 226.5,254.5C 226.5,256.167 226.5,257.833 226.5,259.5C 224.278,259.178 222.444,259.845 221,261.5C 219.691,266.066 219.191,270.733 219.5,275.5C 217.833,275.5 216.167,275.5 214.5,275.5C 214.5,268.833 214.5,262.167 214.5,255.5 Z"/></g>
<g><path style="opacity:1" fill="#2d7abe" d="M 247.5,254.5 C 249.807,255.977 251.64,257.977 253,260.5C 254.656,272.343 249.489,277.343 237.5,275.5C 235.559,274.326 234.059,272.659 233,270.5C 230.623,258.708 235.456,253.375 247.5,254.5 Z"/></g>
<g><path style="opacity:1" fill="#2c7abe" d="M 262.5,254.5 C 265.881,254.46 269.214,254.793 272.5,255.5C 272.19,259.505 270.19,260.505 266.5,258.5C 265,258.453 264,259.119 263.5,260.5C 265.416,262.317 267.749,263.484 270.5,264C 274.092,266.971 274.425,270.304 271.5,274C 266.69,276.149 262.024,275.982 257.5,273.5C 259.063,270.222 261.396,269.555 264.5,271.5C 266.319,271.658 267.652,270.991 268.5,269.5C 265.066,268.303 261.9,266.636 259,264.5C 257.755,260.235 258.922,256.902 262.5,254.5 Z"/></g>
<g><path style="opacity:1" fill="#2e7abe" d="M 284.5,254.5 C 295.989,253.155 300.823,258.155 299,269.5C 298.215,271.286 297.049,272.786 295.5,274C 281.91,278.411 276.41,273.578 279,259.5C 280.73,257.598 282.563,255.931 284.5,254.5 Z"/></g>
<g><path style="opacity:1" fill="#88aada" d="M 308.5,250.5 C 308.5,252.167 308.5,253.833 308.5,255.5C 307.167,255.5 305.833,255.5 304.5,255.5C 305.209,254.596 306.209,254.263 307.5,254.5C 307.232,252.901 307.566,251.568 308.5,250.5 Z"/></g>
<g><path style="opacity:1" fill="#2478bc" d="M 377.5,255.5 C 379.167,255.5 380.833,255.5 382.5,255.5C 382.345,258.853 383.012,259.186 384.5,256.5C 388.874,253.607 392.707,254.273 396,258.5C 396.499,264.157 396.666,269.824 396.5,275.5C 394.5,275.5 392.5,275.5 390.5,275.5C 390.666,270.489 390.499,265.489 390,260.5C 386.914,258.78 384.581,259.447 383,262.5C 382.501,266.821 382.334,271.154 382.5,275.5C 380.833,275.5 379.167,275.5 377.5,275.5C 377.5,268.833 377.5,262.167 377.5,255.5 Z"/></g>
<g><path style="opacity:1" fill="#1d76bb" d="M 421.5,255.5 C 423.167,255.5 424.833,255.5 426.5,255.5C 426.345,258.853 427.012,259.186 428.5,256.5C 429.635,254.787 431.302,254.12 433.5,254.5C 433.5,256.167 433.5,257.833 433.5,259.5C 431.278,259.178 429.444,259.845 428,261.5C 426.691,266.066 426.191,270.733 426.5,275.5C 424.833,275.5 423.167,275.5 421.5,275.5C 421.5,268.833 421.5,262.167 421.5,255.5 Z"/></g>
<g><path style="opacity:1" fill="#2979bd" d="M 442.5,254.5 C 447.535,253.502 451.702,254.835 455,258.5C 455.499,264.157 455.666,269.824 455.5,275.5C 453.833,275.5 452.167,275.5 450.5,275.5C 450.649,274.448 450.483,273.448 450,272.5C 445.436,276.843 441.436,276.509 438,271.5C 437.08,268.692 437.913,266.525 440.5,265C 443.644,263.308 446.977,262.142 450.5,261.5C 449.73,259.728 448.397,258.728 446.5,258.5C 443.749,260.143 441.416,259.81 439.5,257.5C 440.34,256.265 441.34,255.265 442.5,254.5 Z"/></g>
<g><path style="opacity:1" fill="#9bb8e0" d="M 184.5,275.5 C 184.5,268.833 184.5,262.167 184.5,255.5C 182.833,255.5 181.167,255.5 179.5,255.5C 179.5,262.167 179.5,268.833 179.5,275.5C 178.509,268.687 178.175,261.687 178.5,254.5C 180.833,254.5 183.167,254.5 185.5,254.5C 185.825,261.687 185.491,268.687 184.5,275.5 Z"/></g>
<g><path style="opacity:1" fill="#1774bb" d="M 184.5,275.5 C 182.833,275.5 181.167,275.5 179.5,275.5C 179.5,268.833 179.5,262.167 179.5,255.5C 181.167,255.5 182.833,255.5 184.5,255.5C 184.5,262.167 184.5,268.833 184.5,275.5 Z"/></g>
<g><path style="opacity:1" fill="#91b0dc" d="M 214.5,255.5 C 217.007,254.102 219.34,254.436 221.5,256.5C 220.012,259.186 219.345,258.853 219.5,255.5C 217.833,255.5 216.167,255.5 214.5,255.5 Z"/></g>
<g><path style="opacity:1" fill="#91b0dd" d="M 330.5,254.5 C 332.167,254.5 333.833,254.5 335.5,254.5C 335.784,256.415 335.451,258.081 334.5,259.5C 334.5,258.167 334.5,256.833 334.5,255.5C 332.901,255.768 331.568,255.434 330.5,254.5 Z"/></g>
<g><path style="opacity:1" fill="#8daddb" d="M 377.5,255.5 C 380.007,254.102 382.34,254.436 384.5,256.5C 383.012,259.186 382.345,258.853 382.5,255.5C 380.833,255.5 379.167,255.5 377.5,255.5 Z"/></g>
<g><path style="opacity:1" fill="#8eafdc" d="M 411.5,254.5 C 413.167,254.5 414.833,254.5 416.5,254.5C 416.784,256.415 416.451,258.081 415.5,259.5C 415.5,258.167 415.5,256.833 415.5,255.5C 413.901,255.768 412.568,255.434 411.5,254.5 Z"/></g>
<g><path style="opacity:1" fill="#8caddb" d="M 421.5,255.5 C 424.007,254.102 426.34,254.436 428.5,256.5C 427.012,259.186 426.345,258.853 426.5,255.5C 424.833,255.5 423.167,255.5 421.5,255.5 Z"/></g>
<g><path style="opacity:1" fill="#709bd1" d="M 314.5,251.5 C 314.5,252.5 314.5,253.5 314.5,254.5C 315.833,254.5 317.167,254.5 318.5,254.5C 318.5,256.167 318.5,257.833 318.5,259.5C 316.833,259.5 315.167,259.5 313.5,259.5C 314.568,258.566 315.901,258.232 317.5,258.5C 317.5,257.5 317.5,256.5 317.5,255.5C 316.167,255.5 314.833,255.5 313.5,255.5C 313.232,253.901 313.566,252.568 314.5,251.5 Z"/></g>
<g><path style="opacity:1" fill="#d3e3f4" d="M 285.5,259.5 C 292,258.499 294.5,261.165 293,267.5C 291.216,271.779 288.55,272.446 285,269.5C 284.341,266.112 284.508,262.779 285.5,259.5 Z"/></g>
<g><path style="opacity:1" fill="#d3e3f4" d="M 239.5,259.5 C 242.365,259.055 244.865,259.722 247,261.5C 247.744,264.871 247.244,268.037 245.5,271C 242.975,271.896 240.808,271.396 239,269.5C 238.341,266.112 238.508,262.779 239.5,259.5 Z"/></g>
<g><path style="opacity:1" fill="#c0d5ef" d="M 445.5,265.5 C 447.167,265.5 448.833,265.5 450.5,265.5C 450.711,269.984 448.711,271.817 444.5,271C 443.156,268.856 443.49,267.023 445.5,265.5 Z"/></g>
<g><path style="opacity:1" fill="#1774bb" d="M 286.5,288.5 C 287.833,288.5 289.167,288.5 290.5,288.5C 290.5,296.167 290.5,303.833 290.5,311.5C 289.167,311.5 287.833,311.5 286.5,311.5C 286.5,303.833 286.5,296.167 286.5,288.5 Z"/></g>
<g><path style="opacity:1" fill="#2578bd" d="M 296.5,288.5 C 300.846,288.334 305.179,288.501 309.5,289C 314.034,290.857 316.034,294.191 315.5,299C 316.005,303.656 314.338,307.323 310.5,310C 305.964,311.379 301.297,311.879 296.5,311.5C 296.5,303.833 296.5,296.167 296.5,288.5 Z"/></g>
<g><path style="opacity:1" fill="#d1e2f4" d="M 300.5,291.5 C 309.705,291.206 313.205,295.54 311,304.5C 308.303,307.87 304.803,309.204 300.5,308.5C 300.5,302.833 300.5,297.167 300.5,291.5 Z"/></g>
</svg>
