<svg width="1024" height="1024" viewBox="0 0 1024 1024" fill="none" xmlns="http://www.w3.org/2000/svg">
<path d="M819.2 0H204.8C91.6921 0 0 91.6921 0 204.8V819.2C0 932.308 91.6921 1024 204.8 1024H819.2C932.308 1024 1024 932.308 1024 819.2V204.8C1024 91.6921 932.308 0 819.2 0Z" fill="#48D597"/>
<path fill-rule="evenodd" clip-rule="evenodd" d="M860 212C866.627 212 872 217.373 872 224V450C872 456.627 866.627 462 860 462H164C157.373 462 152 456.627 152 450V224C152 217.373 157.373 212 164 212H860ZM337 337C337 370.137 310.137 397 277 397C243.863 397 217 370.137 217 337C217 303.863 243.863 277 277 277C310.137 277 337 303.863 337 337ZM860 562C866.627 562 872 567.373 872 574V800C872 806.627 866.627 812 860 812H164C157.373 812 152 806.627 152 800V574C152 567.373 157.373 562 164 562H860ZM338 687C338 720.689 310.689 748 277 748C243.311 748 216 720.689 216 687C216 653.311 243.311 626 277 626C310.689 626 338 653.311 338 687Z" fill="#080F11"/>
</svg>
